<?xml version="1.0" encoding="UTF-8" standalone="no"?>
<!-- Created with Inkscape (http://www.inkscape.org/) -->

<svg
   width="121.91656mm"
   height="55.560024mm"
   viewBox="0 0 121.91656 55.560025"
   version="1.1"
   id="svg1"
   inkscape:version="1.4 (86a8ad7, 2024-10-11)"
   sodipodi:docname="logotk.svg"
   xmlns:inkscape="http://www.inkscape.org/namespaces/inkscape"
   xmlns:sodipodi="http://sodipodi.sourceforge.net/DTD/sodipodi-0.dtd"
   xmlns="http://www.w3.org/2000/svg"
   xmlns:svg="http://www.w3.org/2000/svg">
  <sodipodi:namedview
     id="namedview1"
     pagecolor="#ffffff"
     bordercolor="#000000"
     borderopacity="0.25"
     inkscape:showpageshadow="2"
     inkscape:pageopacity="0.0"
     inkscape:pagecheckerboard="0"
     inkscape:deskcolor="#d1d1d1"
     inkscape:document-units="mm"
     inkscape:zoom="2.0989208"
     inkscape:cx="236.78836"
     inkscape:cy="151.50643"
     inkscape:window-width="1842"
     inkscape:window-height="1051"
     inkscape:window-x="2469"
     inkscape:window-y="-9"
     inkscape:window-maximized="1"
     inkscape:current-layer="layer1">
    <inkscape:page
       x="0"
       y="1.5885041e-07"
       width="121.91656"
       height="55.560024"
       id="page1"
       margin="0 0 0"
       bleed="0" />
  </sodipodi:namedview>
  <defs
     id="defs1" />
  <g
     inkscape:label="Layer 1"
     inkscape:groupmode="layer"
     id="layer1"
     transform="translate(-8.0222086,-6.0612243)">
    <path
       id="path12-1-1-8"
       style="display:inline;stroke-width:10.2976"
       d="m 82.797441,6.3923902 c -0.18513,0.006 -0.38075,0.06229 -0.56493,0.195617 -2.21448,1.606265 -7.33031,6.0090918 -11.38599,14.5584218 -1.79161,3.77671 -2.54453,8.6609 -2.82476,12.7549 h 1.26028 23.01098 1.6514 22.750229 1.36893 c -0.27446,-4.05151 -0.98759,-8.88683 -2.78131,-12.66798 -4.05567,-8.54932 -9.19323,-12.9521568 -11.4077,-14.5584218 -0.58937,-0.427582 -1.26304,-0.15919 -1.47758,0.543248 L 97.812211,22.189429 c -1.57742,-0.23299 -3.19672,-0.33155 -4.8021,-0.32595 -1.57181,-6.4e-4 -3.12731,0.0979 -4.67173,0.32595 l -4.6066,-15.0582438 c -0.14752,-0.482932 -0.52701,-0.751954 -0.93429,-0.738866 z M 11.56988,11.064109 c -0.36602,0 -0.64613,0.003 -0.84743,0.0213 -0.18301,0.0181 -0.34994,0.0505 -0.47804,0.0868 l -0.3259301,22.05497 c 0.1281001,0.0181 0.2950301,0.0434 0.4780401,0.0434 0.20131,0.0181 0.4494,0.0213 0.76051,0.0213 0.71373,0 1.47973,-0.0647 2.30327,-0.17386 0.823531,-0.11007 1.589541,-0.287 2.303271,-0.54325 1.75688,-0.62217 3.23973,-1.56888 4.41098,-2.86824 1.51897,-1.68367 2.25982,-3.72673 2.25982,-6.10584 0,-2.54381 -0.53164,-4.83495 -1.62968,-6.86634 -1.02484,-1.90352 -2.40823,-3.33606 -4.12851,-4.32431 -0.89674,-0.5124 -1.77249,-0.85998 -2.65093,-1.04298 -0.878441,-0.20134 -1.705041,-0.30415 -2.455381,-0.30415 z m 45.217981,0 c -0.36602,0 -0.64615,0.003 -0.84741,0.0213 -0.18301,0.0181 -0.34988,0.0505 -0.47805,0.0868 l -0.32597,22.0549 c 0.12816,0.0181 0.29504,0.0434 0.47805,0.0434 0.20126,0.0181 0.44946,0.0229 0.76053,0.0229 0.71368,0 1.47973,-0.0647 2.30326,-0.17385 0.82349,-0.11007 1.58954,-0.287 2.30327,-0.54325 1.75689,-0.6221 3.21802,-1.56881 4.38927,-2.86817 1.51896,-1.68367 2.28154,-3.72673 2.28154,-6.10585 0,-2.5438 -0.55336,-4.83495 -1.65141,-6.86633 -1.02485,-1.90408 -2.3865,-3.33663 -4.10677,-4.32487 -0.8967,-0.51243 -1.79423,-0.85998 -2.67266,-1.04299 -0.87845,-0.20137 -1.68332,-0.30417 -2.43365,-0.30417 z m -24.05396,0.0213 -7.8659,0.0229 -1.3472,21.90279 h 2.75959 l 0.56493,-12.62452 4.1937,-0.10904 1.043,12.88527 h 2.86821 z m 16.55747,0 0.17389,21.98972 h 2.88995 l -0.15216,-21.96739 z m -4.36752,0.58677 -2.95514,11.9292 -2.97687,-11.86401 -3.12898,0.0654 4.45444,21.27265 h 2.12944 l 4.86729,-21.40303 z m -14.25421,2.95514 0.19559,2.95514 -3.80257,0.2173 0.15208,-3.08552 z M 12.7867,16.300229 c 0.53071,0.0912 1.023481,0.23677 1.499301,0.45636 0.49412,0.20121 0.97317,0.50997 1.41238,0.9126 0.60392,0.549 1.05781,1.23729 1.36893,2.04253 0.31111,0.78688 0.45631,1.58495 0.45631,2.39019 0,1.17125 -0.28011,2.11103 -0.84743,2.82475 -0.60392,0.7503 -1.22817,1.27854 -1.86869,1.60795 -0.53072,0.27446 -1.225851,0.48025 -2.085981,0.60845 z m 45.196261,0 c 0.53067,0.0912 1.04521,0.23677 1.52102,0.45636 0.49418,0.20121 0.95143,0.50997 1.39065,0.9126 0.60388,0.549 1.05779,1.23729 1.36893,2.04253 0.31117,0.78688 0.47805,1.58495 0.47805,2.39019 0,1.17125 -0.28013,2.11103 -0.84741,2.82475 -0.60388,0.7503 -1.22816,1.27854 -1.86868,1.60795 -0.53069,0.27446 -1.22585,0.48025 -2.08599,0.60845 z m 24.96658,19.64298 -10.36472,10.53857 0.89091,1.19509 12.21168,-10.21262 z m -57.73387,0.2173 c -1.70197,0 -2.95045,0.49271 -3.73738,1.4993 -0.76863,1.00651 -1.15164,2.49969 -1.15164,4.47618 -0.0183,1.18955 -0.0251,2.43459 -0.0434,3.71564 -0.0183,1.26276 -0.0435,2.62443 -0.0435,4.10678 0,0.23788 0.0252,0.96167 0.0435,2.15117 0.0183,1.18955 0.0537,2.02986 0.10869,2.54229 0.14641,1.33595 0.59686,2.37178 1.34719,3.08552 0.75034,0.69542 1.73241,1.04299 2.97687,1.04299 1.31765,0 2.46667,-0.41836 3.45491,-1.26028 1.06146,-0.89669 1.60794,-2.06748 1.60794,-3.47665 -0.0178,-1.44575 -0.0501,-3.39278 -0.0868,-5.84508 -0.0178,-2.45231 -0.0222,-4.50567 -0.0222,-6.17103 0,-1.81178 -0.31207,-3.20202 -0.9343,-4.17197 -0.7322,-1.13466 -1.90974,-1.69486 -3.52022,-1.69487 z m 29.79042,0.19554 -8.08318,0.32595 -0.23898,22.0549 8.73505,-0.32595 -0.0868,-3.368 -6.34485,0.23891 0.0222,-6.25794 6.06239,-0.0868 -0.0657,-3.54182 -5.95375,0.0868 0.0211,-5.19322 5.9972,-0.0654 z m 52.996949,0.0434 -10.364709,10.53855 0.890909,1.21682 12.21168,-10.21262 z m -92.152559,0.0229 -0.0434,5.95374 -4.106781,0.0654 0.0435,-5.8451 H 9.5926299 l -0.1521,21.81587 H 11.56997 l 0.10869,-12.42898 4.085041,-0.0654 -0.0652,12.58107 h 2.1294 l 0.26074,-22.07662 z m 15.53622,0.0868 2.52055,21.96799 2.36847,0.0229 1.89042,-7.64859 1.89042,7.56169 h 2.4771 l 3.02032,-21.90367 h -3.9764 l -1.34719,14.16648 -1.97734,-8.73504 -2.06426,8.73504 -1.47756,-14.16728 z m -5.64954,2.19458 c 0.69544,0 1.21335,0.38304 1.54276,1.15164 0.27446,0.64047 0.41286,1.53458 0.41286,2.65093 0,0.65883 0.0103,2.08794 0.0657,4.30234 0.0546,2.2144 0.0868,3.63665 0.0868,4.25887 0,0.95166 -0.21606,1.68907 -0.67364,2.23809 -0.43923,0.53064 -0.9571,0.80402 -1.54276,0.80402 -0.54903,0 -1.00294,-0.24813 -1.36892,-0.76055 -0.36602,-0.51242 -0.56494,-1.17209 -0.56494,-1.97733 -0.0546,-0.69542 -0.0901,-1.83415 -0.10902,-3.38972 v -5.19323 c 0,-1.22615 0.19892,-2.2048 0.56494,-2.95514 0.36602,-0.7503 0.8908,-1.12992 1.58623,-1.12992 z m 92.478499,1.10819 -0.0229,0.0229 h -0.0229 -0.0229 c -1.6723,7.06227 -5.94557,13.17836 -12.84025,13.25471 -4.98535,-0.0126 -9.456819,-2.8748 -11.602339,-7.25827 -0.45273,-0.92507 -0.96177,-0.93697 -1.43411,-0.0229 -2.19183,4.24662 -6.59273,6.97995 -11.47289,6.99673 -8.34454,-0.325 -10.70427,-7.74971 -12.86355,-12.95047 -0.002,0.40235 -0.0289,2.40134 0,2.80304 -0.004,0.42852 -0.0111,0.94064 0.0222,1.52103 l -9.99493,-1.78151 a 0.15553809,0.13471858 0 0 0 -0.0211,0 0.15553809,0.13471858 0 0 0 -0.0222,0 0.15553809,0.13471858 0 0 0 -0.0211,0 0.15553809,0.13471858 0 0 0 -0.0222,0.0229 0.15553809,0.13471858 0 0 0 -0.0211,0 0.15553809,0.13471858 0 0 0 -0.0222,0.0229 0.15553809,0.13471858 0 0 0 -0.0222,0 0.15553809,0.13471858 0 0 0 0,0.0213 0.15553809,0.13471858 0 0 0 0,0.0229 0.15553809,0.13471858 0 0 0 -0.0211,0 0.15553809,0.13471858 0 0 0 0,0.0229 0.15553809,0.13471858 0 0 0 0,0.0229 0.15553809,0.13471858 0 0 0 0,0.0229 0.15553809,0.13471858 0 0 0 0,0.0213 0.15553809,0.13471858 0 0 0 0.0211,0 0.15553809,0.13471858 0 0 0 0,0.0229 0.15553809,0.13471858 0 0 0 0.0222,0 0.15553809,0.13471858 0 0 0 0,0.0229 0.15553809,0.13471858 0 0 0 0,0.0229 0.15553809,0.13471858 0 0 0 0.0222,0 0.15553809,0.13471858 0 0 0 0.0211,0 0.15553809,0.13471858 0 0 0 0,0.0213 l 10.32126,3.75911 c 0.12472,0.80457 0.31374,1.66254 0.56494,2.5423 -0.9047,0.1226 -7.98286,1.09361 -11.38599,1.60794 -0.34655,0.0536 -0.59331,0.11953 -0.69533,0.17385 l -0.0211,0.0229 v 0.0229 0.0213 0.0229 h 0.0211 v 0.0229 h 0.0222 0.0211 c 0.11692,0.041 0.36024,0.0823 0.71702,0.0868 3.43377,0.0544 10.50302,0.10124 12.03786,0.10904 0.3876,0.91995 0.85853,1.8374 1.45585,2.71613 l -8.75687,4.53708 a 0.18790355,0.16275178 0 0 0 -0.0222,0.0229 0.18790355,0.16275178 0 0 0 -0.0211,0.0229 0.18790355,0.16275178 0 0 0 -0.0222,0.0229 0.18790355,0.16275178 0 0 0 0,0.0229 0.18790355,0.16275178 0 0 0 0,0.0229 0.18790355,0.16275178 0 0 0 -0.0211,0.0229 0.18790355,0.16275178 0 0 0 0,0.0229 0.18790355,0.16275178 0 0 0 0,0.0229 0.18790355,0.16275178 0 0 0 0,0.0229 0.18790355,0.16275178 0 0 0 0.0211,0.0229 0.18790355,0.16275178 0 0 0 0,0.0229 0.18790355,0.16275178 0 0 0 0.0222,0.0229 0.18790355,0.16275178 0 0 0 0.0211,0 0.18790355,0.16275178 0 0 0 0,0.0229 0.18790355,0.16275178 0 0 0 0.0222,0 0.18790355,0.16275178 0 0 0 0.0222,0 0.18790355,0.16275178 0 0 0 0,0.0229 0.18790355,0.16275178 0 0 0 0.0211,0 0.18790355,0.16275178 0 0 0 0.0434,0 0.18790355,0.16275178 0 0 0 0.0222,0 0.18790355,0.16275178 0 0 0 0.0222,0 0.18790355,0.16275178 0 0 0 0.0211,0 l 10.14766,-2.99654 c 0.18713,0.1927 0.38404,0.38004 0.58663,0.56493 2.69102,2.45538 6.16314,4.88902 19.27359,4.88902 l -0.0434,-0.0434 c 0.24096,0.0166 0.4756,0.0323 0.71703,0.0434 0.25491,-0.0103 0.52787,-0.0268 0.78223,-0.0434 l -0.0868,0.0654 c 13.110429,0 16.514619,-2.53197 19.273589,-4.91074 0.0544,-0.0465 0.12064,-0.10463 0.17386,-0.1521 l 10.47335,2.9986 a 0.19209177,0.16275178 0 0 1 0.0229,0 0.19209177,0.16275178 0 0 1 0.0229,0 0.19209177,0.16275178 0 0 1 0.0229,0 0.19209177,0.16275178 0 0 1 0.0229,0 0.19209177,0.16275178 0 0 1 0.0229,0 0.19209177,0.16275178 0 0 1 0.0229,0 0.19209177,0.16275178 0 0 1 0,-0.0229 0.19209177,0.16275178 0 0 1 0.0229,0 0.19209177,0.16275178 0 0 1 0.0229,0 0.19209177,0.16275178 0 0 1 0.0229,-0.0229 0.19209177,0.16275178 0 0 1 0.0229,0 0.19209177,0.16275178 0 0 1 0,-0.0229 0.19209177,0.16275178 0 0 1 0,-0.0229 0.19209177,0.16275178 0 0 1 0.0229,0 0.19209177,0.16275178 0 0 1 0,-0.0229 0.19209177,0.16275178 0 0 1 0,-0.0229 0.19209177,0.16275178 0 0 1 0,-0.0229 0.19209177,0.16275178 0 0 1 0,-0.0229 0.19209177,0.16275178 0 0 1 -0.0229,-0.0229 0.19209177,0.16275178 0 0 1 0,-0.0229 0.19209177,0.16275178 0 0 1 0,-0.0229 0.19209177,0.16275178 0 0 1 -0.0229,0 0.19209177,0.16275178 0 0 1 -0.0229,-0.0229 0.19209177,0.16275178 0 0 1 -0.0229,0 0.19209177,0.16275178 0 0 1 0,-0.0229 0.19209177,0.16275178 0 0 1 -0.0229,0 l -8.97925,-4.57411 c 0.58385,-0.8355 1.07403,-1.74268 1.47757,-2.69439 1.45071,-0.007 8.79009,-0.0323 12.34206,-0.0868 0.36443,-0.004 0.61902,-0.0457 0.73886,-0.0868 l 0.0229,-0.0229 h 0.0229 v -0.0213 h 0.0229 v -0.0229 -0.0229 -0.0229 h -0.0229 c -0.10353,-0.0544 -0.36277,-0.14215 -0.71703,-0.19553 -3.55455,-0.52543 -11.00784,-1.49872 -11.66845,-1.58622 0.25577,-0.85397 0.44768,-1.72295 0.60845,-2.56402 l 10.55964,-3.73622 a 0.15900494,0.13471858 0 0 1 0,-0.0229 0.15900494,0.13471858 0 0 1 0.0229,0 0.15900494,0.13471858 0 0 1 0.0229,-0.0229 0.15900494,0.13471858 0 0 1 0,-0.0213 0.15900494,0.13471858 0 0 1 0.0229,-0.0229 0.15900494,0.13471858 0 0 1 0.0229,0 0.15900494,0.13471858 0 0 1 0,-0.0229 0.15900494,0.13471858 0 0 1 0.0229,0 0.15900494,0.13471858 0 0 1 0,-0.0229 0.15900494,0.13471858 0 0 1 0,-0.0229 0.15900494,0.13471858 0 0 1 0,-0.0213 0.15900494,0.13471858 0 0 1 -0.0229,0 0.15900494,0.13471858 0 0 1 0,-0.0229 0.15900494,0.13471858 0 0 1 0,-0.0229 0.15900494,0.13471858 0 0 1 -0.0229,0 0.15900494,0.13471858 0 0 1 -0.0229,0 0.15900494,0.13471858 0 0 1 0,-0.0229 0.15900494,0.13471858 0 0 1 -0.0229,0 0.15900494,0.13471858 0 0 1 -0.0229,0 0.15900494,0.13471858 0 0 1 0,-0.0213 0.15900494,0.13471858 0 0 1 -0.0229,0 0.15900494,0.13471858 0 0 1 -0.0229,0 0.15900494,0.13471858 0 0 1 -0.0229,0 0.15900494,0.13471858 0 0 1 -0.0229,0 l -10.12566,1.76004 c 0.24372,-2.06635 0.27376,-3.83151 0.26075,-4.80209 z m -33.006319,0.47804 -8.0397,7.95281 0.80391,0.65182 9.25654,-7.64859 z m 25.053519,0.45636 -8.03972,7.97453 0.80403,0.63014 9.25653,-7.62687 z" />
  </g>
</svg>
